<?xml version="1.0" encoding="UTF-8"?>
<svg width="1405px" height="578px" viewBox="0 0 1405 578" version="1.1" xmlns="http://www.w3.org/2000/svg" xmlns:xlink="http://www.w3.org/1999/xlink">
    <title>Artboard</title>
    <g id="Artboard" stroke="none" stroke-width="1" fill="none" fill-rule="evenodd">
        <g id="drawkit-daily-life-vector-illustration-02" transform="translate(65.000000, 46.000000)">
            <g id="CHAIR" transform="translate(99.000000, 154.000000)">
                <path d="M225,169.675071 L225,171.821175 C225,173.342591 224.39599,174.801618 223.320988,175.876942 C222.245986,176.952266 220.788157,177.554341 219.268551,177.554341 L63.4884945,177.554341 C46.6337721,177.554341 32.0365282,165.84348 28.3648712,149.37395 L0.48849368,24.6955279 C-0.853144685,18.6907952 0.602083096,12.4009904 4.44412908,7.59842802 C8.28617507,2.79586568 14.0990747,2.84217094e-14 20.2448938,2.84217094e-14 L74.2572891,2.84217094e-14 C86.9296261,-0.00569956291 97.9072944,8.79751145 100.668906,21.1800052 L126.146548,135.153456 C129.907588,151.978722 144.824956,163.939142 162.045932,163.936798 L219.268551,163.936798 C222.433943,163.936798 225,166.505911 225,169.675071 Z" id="Path" fill="#D6EAF2" fill-rule="nonzero"></path>
                <path d="M57.4457206,178.213499 L124.702202,178.213499 C138.824679,178.230422 150.260293,189.704816 150.24621,203.844113 L150.24621,291.369387 C150.254318,298.159803 147.567485,304.675258 142.77691,309.482078 C137.986336,314.288899 131.484544,316.993228 124.702202,317 L44.8600108,317" id="Path" stroke="#639AD6" stroke-width="3"></path>
                <path d="M91.5332939,178.213499 L181.169475,178.213499 C195.283151,178.241694 206.704876,189.713613 206.687971,203.844113 L206.687971,291.369387 C206.707693,305.50105 195.284322,316.974623 181.169475,317 L117.107905,317" id="Path" stroke="#639AD6" stroke-width="3"></path>
                <line x1="150.246192" y1="268.027951" x2="206.70836" y2="268.027951" id="Path" stroke="#639AD6" stroke-width="3"></line>
            </g>
            <g id="MAN" transform="translate(168.000000, 38.000000)">
                <g id="RIGHT_HAND" transform="translate(91.915458, 74.547222)" fill-rule="nonzero">
                    <path d="M2.83907847,5.68434189e-14 C2.83907847,5.68434189e-14 28.9373898,1.74347686 41.6621683,25.651095 C54.3869468,49.5587132 70.2686556,82.1786028 70.2686556,82.1786028 C70.2686556,82.1786028 115.099108,80.9208453 148.267308,101.643167 L148.267308,116.541969 L52.9208644,116.541969 C41.0747137,116.541969 2.85951167,71.272925 0.627184006,41.9457013 C-1.60514366,12.6184777 2.83907847,5.68434189e-14 2.83907847,5.68434189e-14 Z" id="HAND" fill="#F9C543"></path>
                    <path d="M140.819405,116.414148 C138.903792,116.015347 140.308575,109.864606 141.427293,106.070883 C142.050505,103.979733 143.547238,102.916263 145.513934,102.011291 C149.467759,100.211573 156.302666,98.1766647 160.164542,99.0458467 C165.82454,100.324056 169.46165,103.90304 173.001703,108.146694 C174.023363,109.363548 178.99374,115.197294 178.99374,116.756708 L140.819405,116.414148 Z" id="ARM" fill="#A57574"></path>
                </g>
                <path d="M45.5922444,64.7305785 C29.0158067,64.7868197 -5.34262778,99.3956023 0.705600953,187.382386 C5.16514798,252.167123 25.3327215,279.413423 29.7922685,277.506335 C34.2518156,275.599248 88.0779863,228.387326 95.4032904,202.884503 C102.728594,177.38168 141.643634,89.8346001 90.3869385,73.0184846 C54.6186128,61.2896403 50.8946612,64.71524 45.5922444,64.7305785 Z" id="TORSO" fill="#F9C543" fill-rule="nonzero"></path>
                <g id="LEGS" transform="translate(29.022344, 199.923435)">
                    <g id="RIGHT_LEG" transform="translate(7.040229, 7.174269)">
                        <g id="SHOES" transform="translate(118.515511, 200.750143)">
                            <path d="M58.4642767,26.1521529 L0.0712846348,26.1521529 C0.00998501927,25.2574067 -0.0104481859,24.408676 0.00487671797,23.5957352 L58.5306847,23.5957352 C58.5964614,24.4478923 58.5742075,25.3045683 58.4642767,26.1521529 Z" id="Path" fill="#FFFFFF" fill-rule="nonzero"></path>
                            <path d="M6.01734734,0 C6.2267877,6.3757057 0.0712846348,10.4148456 0.0712846348,23.5906224 L58.4642767,23.5906224 C58.4642767,23.5906224 59.3122548,12.5366723 47.634678,9.99048031 C35.9571012,7.44428829 25.3369428,4.03913994 24.2744162,0 L6.01734734,0 Z" id="Path" fill="#A1CBE2" fill-rule="nonzero"></path>
                            <line x1="24.6881886" y1="11.9129064" x2="30.0161468" y2="4.01357576" id="Path" stroke="#FFFFFF" stroke-width="3" stroke-linecap="round"></line>
                            <line x1="28.8463458" y1="12.8690066" x2="33.8575894" y2="5.61389323" id="Path" stroke="#FFFFFF" stroke-width="3" stroke-linecap="round"></line>
                            <line x1="34.2866867" y1="13.1911152" x2="38.3375696" y2="6.57510628" id="Path" stroke="#FFFFFF" stroke-width="3" stroke-linecap="round"></line>
                        </g>
                        <g id="PANT" fill-rule="nonzero">
                            <path d="M61.7365107,0.516171938 C61.7365107,0.516171938 150.861043,-5.06193145 172.520241,20.4562299 C194.179438,45.9743912 152.13301,136.916394 147.888012,192.170806 C147.888012,192.170806 126.560854,194.297745 117.902283,192.170806 C109.243713,190.043866 101.70386,95.5791199 123.521415,69.6468189 C123.521415,69.6468189 40.5728184,88.743259 8.23727121,64.6566916 C-24.098276,40.5701242 48.2812451,0.981439956 61.7365107,0.516171938 Z" id="Path" fill="#242854"></path>
                            <path d="M118.106615,202.785052 C121.171596,203.690024 130.310347,206.144185 148.388626,203.265658 C149.323445,203.117386 150.013065,201.670454 150.013065,200.709241 L150.013065,193.689318 C150.013065,193.132715 149.771136,192.603643 149.350502,192.239556 C148.929869,191.875468 148.371917,191.712305 147.821604,191.792456 C132.179986,194.062555 121.907192,192.815023 117.61111,191.85381 C117.00507,191.721562 116.372488,191.889571 115.911692,192.305162 C115.450896,192.720754 115.218302,193.333046 115.286833,193.950072 L116.747807,201.143832 C116.83115,201.914042 117.365964,202.560011 118.106615,202.785052 L118.106615,202.785052 Z" id="Path" fill="#4E577D"></path>
                        </g>
                    </g>
                    <g id="LEFT_LEG">
                        <g id="SHOE" transform="translate(258.105711, 137.625074)">
                            <path d="M57.8719454,7.96876296 L11.5498692,43.5489843 C10.8960067,42.751382 10.3034437,41.9640053 9.77218038,41.2021928 L55.9103577,5.75490525 C56.6460407,6.41596029 57.3041407,7.15869521 57.8719454,7.96876296 Z" id="Path" fill="#FFFFFF" fill-rule="nonzero"></path>
                            <path d="M0,18.9715847 C4.04577463,23.9156965 1.61933151,30.8589269 9.62914794,41.2993367 L55.9512241,5.71400257 C55.9512241,5.71400257 49.9029954,-3.56579362 39.0938298,1.5265904 C28.2846643,6.61897443 17.7871051,10.3922469 14.4871425,7.83582925 L0,18.9715847 Z" id="Path" fill="#A1CBE2" fill-rule="nonzero"></path>
                            <line x1="22.1751359" y1="16.4816338" x2="21.6030062" y2="7.27341735" id="Path" stroke="#FFFFFF" stroke-width="3" stroke-linecap="round"></line>
                            <line x1="25.6947555" y1="14.2370991" x2="25.1226258" y2="5.99520851" id="Path" stroke="#FFFFFF" stroke-width="3" stroke-linecap="round"></line>
                            <line x1="29.2143751" y1="11.9976772" x2="28.6422454" y2="4.71188684" id="Path" stroke="#FFFFFF" stroke-width="3" stroke-linecap="round"></line>
                        </g>
                        <g id="PANT-2" fill-rule="nonzero">
                            <path d="M0.453209807,74.3822655 C1.78647645,81.5760249 77.6396424,99.0210191 158.325261,48.0153735 C158.325261,48.0153735 165.436017,106.991929 246.969614,151.621869 C246.969614,151.621869 264.925293,143.952616 269.803721,133.655366 C269.803721,133.655366 217.699047,71.3912568 197.214759,14.2195317 C188.617488,-9.78523031 80.4236666,2.78211902 64.5879326,7.69044097 C48.7521986,12.5987629 -5.4928529,42.3043364 0.453209807,74.3822655 Z" id="Path" fill="#242854"></path>
                            <path d="M6.86412793,78.4111798 C2.93073594,77.0204885 0.69840827,75.5582176 0.478751314,74.3771527 C-4.85942354,45.5918895 38.315939,18.7086012 58.6520865,9.95542704 C38.535596,21.6740457 4.20781126,51.8295487 6.86412793,78.4111798 Z" id="Path" fill="#383C4D"></path>
                            <path d="M252.879918,160.344367 C255.868275,159.188866 264.215239,155.062808 276.807202,141.764323 C277.457498,141.077443 277.51167,140.019056 276.934909,139.269259 L272.664369,133.701381 C272.326363,133.259649 271.813306,132.986664 271.258401,132.953301 C270.703497,132.919938 270.161479,133.129487 269.773071,133.527545 C258.744248,144.862701 250.330876,149.725007 246.351509,151.601418 C245.793079,151.865439 245.395559,152.382121 245.283209,152.989954 C245.17086,153.597787 245.357388,154.222613 245.784488,154.669119 L250.816165,159.879098 C251.348393,160.434776 252.161057,160.617989 252.879918,160.344367 L252.879918,160.344367 Z" id="Path" fill="#6874A7"></path>
                        </g>
                    </g>
                </g>
                <g id="LEFT_HAND" transform="translate(10.514269, 82.065784)">
                    <path d="M39.5273061,1.70499329 C56.7627147,7.4313689 77.8855406,67.9008728 77.8855406,67.9008728 C77.8855406,67.9008728 108.167551,73.6425869 149.258726,90.8575036 C149.258726,90.8575036 151.460404,101.691602 146.045605,109.023408 C146.045605,109.023408 64.5068995,109.662512 56.548166,109.023408 C48.5894326,108.384303 11.1660173,77.5641316 1.93020859,43.4717454 C-7.30560015,9.37935917 18.4759965,-5.29447833 39.5273061,1.70499329 Z" id="HAND-2" fill="#F9C543" fill-rule="nonzero"></path>
                    <path d="M155.919951,64.0100051 L173.221768,106.891355 L176.194799,106.891355 L158.407694,63.0027765 C158.142062,62.346913 157.413982,62.0093741 156.742388,62.2307384 L156.742388,62.2307384 C156.391258,62.3490331 156.104215,62.606701 155.948653,62.9432457 C155.793091,63.2797904 155.782711,63.6655684 155.919951,64.0100051 Z" id="PEN" fill="#41465A" fill-rule="nonzero"></path>
                    <g id="ARM-2" transform="translate(146.469564, 88.800180)" fill="#A57574" fill-rule="nonzero">
                        <path d="M2.60015469,5.27840962 C2.60015469,5.27840962 14.6506374,-1.09729609 20.3157436,0.165574249 C25.9808497,1.42844458 32.7697821,6.53616712 33.479836,7.96776102 C34.1898899,9.39935492 39.1398339,16.3272468 39.1398339,17.8866616 C39.1398339,19.4460764 23.1253093,18.8785517 20.8725484,18.8785517 C18.6197876,18.8785517 3.8108221,19.1137421 0.950173371,18.5206532 C-1.91047535,17.9275643 2.60015469,5.27840962 2.60015469,5.27840962 Z" id="Path"></path>
                        <path d="M20.8725484,18.8785517 C23.1253093,18.8785517 39.1398339,19.4460764 39.1398339,17.8866616 C39.1398339,16.3272468 34.1847816,9.38401641 33.479836,7.96776102 C32.7748904,6.55150562 25.9757414,1.44889593 20.3157436,0.17579992 C20.3157436,0.17579992 27.3038998,9.89018712 20.8725484,18.8785517" id="Path"></path>
                    </g>
                    <path d="M146.045605,109.023408 C146.045605,109.023408 64.5068995,109.662512 56.548166,109.023408 C48.5894326,108.384303 11.1660173,77.5641316 1.93020859,43.4717454" id="HAND-3" stroke="#E59E38" stroke-width="3"></path>
                    <path d="M39.5273061,1.70499329 C56.7627147,7.4313689 77.8855406,67.9008728 77.8855406,67.9008728 C77.8855406,67.9008728 98.2114714,71.7559506 128.156334,82.615613" id="HAND-4" stroke="#E59E38" stroke-width="3"></path>
                </g>
                <path d="M256.912466,191.206787 L256.912466,188.650369 C256.915733,187.231916 256.330122,185.875847 255.295619,184.906351 C254.261115,183.936856 252.870705,183.441075 251.456787,183.537534 L158.22518,189.355941 C157.245967,189.428241 156.488357,190.244493 156.488357,191.227238 L256.912466,191.206787 Z" id="TABLET" fill="#A1CBE2" fill-rule="nonzero"></path>
                <g id="HEAD" transform="translate(37.996200, 0.000000)">
                    <path d="M17.5010402,25.7758858 C17.5010402,25.7758858 15.4577197,51.5803659 0,67.9261006 C0,67.9261006 17.3120331,81.6642892 36.1156902,71.4130543 L38.1590107,25.8730297 L17.5010402,25.7758858 Z" id="NECK" fill="#A57574" fill-rule="nonzero"></path>
                    <path d="M62.7043984,20.1619926 C62.7043984,20.1619926 58.1069272,31.4102304 59.7620169,52.1632292 C61.4171065,72.9162279 28.483888,62.0974683 27.9270832,47.7508522 C27.3702783,33.4042362 29.602606,20.335829 33.3265577,20.1415413 C37.0505093,19.9472535 62.7043984,20.1619926 62.7043984,20.1619926 Z" id="FACE" fill="#A57574" fill-rule="nonzero"></path>
                    <g id="HAIR" transform="translate(12.520446, 0.000000)" fill-rule="nonzero">
                        <path d="M0,42.6226784 C0,42.6226784 4.97037716,30.8222543 1.47629907,17.6720418 C-1.07785157,8.05991128 9.26135025,2.47158223 18.0118704,7.5997561 C18.0118704,7.5997561 50.965522,-10.5712608 58.3981004,9.28187894 C67.3580609,33.2099485 23.9681497,21.1027543 23.2223377,22.0384032 C22.4765257,22.974052 19.9989996,41.5949985 24.6526621,47.9298015 C29.3063245,54.2646045 34.4554922,47.8940116 41.1524752,47.4594206 C48.0895484,47.0043783 47.2415704,51.6008173 47.2415704,51.6008173 C47.2415704,51.6008173 49.3155407,62.7621369 50.0613527,67.0466929 C50.8071647,71.3312489 24.2695395,78.565911 17.2660584,67.6857973 C10.9113316,57.8180251 14.9673228,37.8626286 12.3671974,36.2009571 C6.97283127,32.7600189 2.60012536,38.844293 5.59358992,41.267777 C5.59358992,41.267777 2.30895219,43.2566699 0,42.6226784 Z" id="Path" fill="#242854"></path>
                        <path d="M56.3088052,24.12444 C46.0922026,29.6258509 24.8416692,22.7235231 22.9413811,21.4759913" id="Path" fill="#242854"></path>
                        <path d="M8.76073672,3.47369796 C12.3365476,3.19249201 16.2188566,4.59852174 18.0118704,7.92186473" id="Path" fill="#4E2556"></path>
                        <ellipse id="Oval" fill="#242854" cx="34.3022432" cy="36.2214085" rx="1.55292359" ry="1.94799027"></ellipse>
                        <ellipse id="Oval" fill="#242854" cx="45.3463906" cy="36.2214085" rx="1.1800176" ry="1.94799027"></ellipse>
                    </g>
                    <g id="GLASSES" transform="translate(16.770553, 29.436676)" stroke="#FFFFFF" stroke-width="3">
                        <ellipse id="Oval" cx="29.4135989" cy="6.50863942" rx="6.03290383" ry="6.50863942"></ellipse>
                        <ellipse id="Oval" cx="43.4512108" cy="6.50863942" rx="5.09297639" ry="6.50863942"></ellipse>
                        <line x1="35.4465027" y1="6.22743348" x2="38.3531261" y2="6.22743348" id="Path"></line>
                        <path d="M23.0639804,5.90532485 L5.83368008,5.66502159 C3.61852607,5.66803185 1.50471269,6.59434077 0,8.22143927" id="Path"></path>
                    </g>
                </g>
            </g>
            <g id="TABLE" transform="translate(0.000000, 230.000000)" fill="#FFF4DE" fill-rule="nonzero">
                <polygon id="Path" points="559 5.68434189e-14 559 242 542.693533 242 542.693533 15.9832985 16.306467 15.9832985 16.306467 242 0 242 0 5.68434189e-14"></polygon>
            </g>
            <g id="COMPUTER" transform="translate(360.000000, 66.000000)">
                <path d="M180.754919,125.768818 L8.26220256,125.768818 C5.68805922,125.768818 3.26129479,124.569155 1.6982277,122.526298 C0.135160608,120.483441 -0.38572112,117.829795 0.289333398,115.348646 L28.9066048,10.0721508 C30.4437904,4.50892523 35.4703872,0 41.239957,0 L213.732674,0 C219.179435,0 223.135126,5.8191237 221.705543,11.0701535 L193.088272,116.346648 C191.577753,121.907997 186.524035,125.768818 180.754919,125.768818 Z" id="Path" fill="#FFFFFF" fill-rule="nonzero"></path>
                <path d="M180.760043,125.768818 L13.2068161,125.768818 C10.7036572,125.765726 8.34476884,124.598229 6.82605101,122.610753 C5.30733318,120.623277 4.80209987,118.04263 5.45940087,115.630134 L33.2363441,13.1736363 C34.7025658,7.76683502 39.6130817,4.01118976 45.2212676,4.00736487 L212.774495,4.00736487 C215.277795,4.01094565 217.636761,5.17829956 219.156199,7.16540382 C220.675637,9.15250808 221.18236,11.7328701 220.527034,14.1460492 L192.724471,116.602546 C191.260252,122.00202 186.360611,125.755767 180.760043,125.768818 Z" id="Path" fill="#D4D1F4" fill-rule="nonzero"></path>
                <path d="M180.760043,125.768818 L13.2068161,125.768818 C10.7036572,125.765726 8.34476884,124.598229 6.82605101,122.610753 C5.30733318,120.623277 4.80209987,118.04263 5.45940087,115.630134 L33.2363441,13.1736363 C34.7025658,7.76683502 39.6130817,4.01118976 45.2212676,4.00736487 L212.774495,4.00736487 C215.277795,4.01094565 217.636761,5.17829956 219.156199,7.16540382 C220.675637,9.15250808 221.18236,11.7328701 220.527034,14.1460492 L192.724471,116.602546 C191.260252,122.00202 186.360611,125.755767 180.760043,125.768818 Z" id="Path" fill="#EBF4F7" fill-rule="nonzero"></path>
                <path d="M25.903969,40.2015978 L33.2363441,13.1736363 C34.7025658,7.76683502 39.6130817,4.01118976 45.2212676,4.00736487 L145.619981,4.00736487" id="Path" stroke="#639AD6" stroke-width="3" stroke-linecap="round" stroke-linejoin="round"></path>
                <path d="M192.744967,116.602546 C191.278745,122.009348 186.368229,125.764993 180.760043,125.768818 L13.2068161,125.768818 C10.7036572,125.765726 8.34476884,124.598229 6.82605101,122.610753 C5.30733318,120.623277 4.80209987,118.04263 5.45940087,115.630134 L20.1139033,61.6202721" id="Path" stroke="#639AD6" stroke-width="3" stroke-linecap="round" stroke-linejoin="round"></path>
                <path d="M142.950402,153.917613 L126.297559,96.1562851 L87.3094086,96.1562851 L102.824735,149.940956 C104.090351,154.321932 100.411354,158.595431 95.3796328,158.595431 L84.6193338,158.595431 C83.937992,158.560551 83.3564239,159.081978 83.3178501,159.762327 L83.3178501,162.009112 C83.3564239,162.689461 83.937992,163.210888 84.6193338,163.176008 L135.202987,163.176008 C140.44479,163.176008 144.262134,158.462364 142.950402,153.917613 Z" id="Path" fill="#D6EAF2" fill-rule="nonzero"></path>
                <path d="M98.4949956,161.154417 L83.3383459,161.154417 L83.3383459,159.762327 C83.3769197,159.081978 83.9584879,158.560551 84.6398297,158.595431 L95.3745089,158.595431 C100.411354,158.595431 104.085227,154.321932 102.824735,149.940956 L87.3094086,96.1562851 L90.0968384,96.1562851 L105.92985,151.501935 C106.54456,153.807554 106.051056,156.267588 104.594455,158.158656 C103.137854,160.049723 100.883759,161.156824 98.4949956,161.154417 Z" id="Path" fill="#FFFFFF" fill-rule="nonzero"></path>
                <polygon id="Path" fill="#A1CBE2" fill-rule="nonzero" points="87.3094086 96.1562851 87.3094086 125.825115 95.8664083 125.825115"></polygon>
                <polygon id="Path" fill="#A1CBE2" fill-rule="nonzero" points="37.197159 115.348646 28.6350353 115.348646 27.9791695 117.72338 36.5412931 117.72338"></polygon>
                <polygon id="Path" fill="#A1CBE2" fill-rule="nonzero" points="54.8952888 115.348646 46.9890311 115.348646 46.3382892 117.72338 54.239423 117.72338"></polygon>
                <path d="M135.551416,162.362252 C140.772723,162.362252 144.590067,158.487954 143.278335,153.943203 L126.61012,96.1818749" id="Path" stroke="#639AD6" stroke-width="3"></path>
                <path d="M50.616789,116.536013 L54.7979338,116.536013 C56.2440027,116.536013 57.4162732,117.706913 57.4162732,119.151292 L57.4162732,197.901386 C57.4162732,201.821842 60.5981502,205 64.5231945,205 L64.5231945,205 C68.4462375,204.997175 71.6249918,201.819844 71.6249918,197.901386 L71.6249918,162.705155 C71.6249918,162.01201 71.3489698,161.347329 70.857788,160.857681 C70.3666063,160.368033 69.7006076,160.093635 69.0066524,160.094994 L65.1585645,160.094994" id="Path" stroke="#639AD6" stroke-width="3"></path>
            </g>
            <g id="SMALL" transform="translate(49.000000, 163.000000)" fill-rule="nonzero">
                <rect id="Rectangle" fill="#F9C543" x="6.77942539" y="35.8390379" width="30.2168675" height="30.1609621" rx="8.99"></rect>
                <path d="M20.3433735,35.8390379 C20.3433735,35.8390379 16.5917516,7.91674376 44,0 C44,0 32.1691381,11.6359852 28.5653383,35.8390379 L20.3433735,35.8390379 Z" id="Path" fill="#A1CBE2"></path>
                <path d="M25.150139,35.8390379 C25.150139,35.8390379 21.8878591,11.3714154 0,9.73311748 C0,9.73311748 13.7627433,15.4875116 13.92076,35.8390379 L25.150139,35.8390379 Z" id="Path" fill="#A1CBE2"></path>
                <path d="M17.7437442,35.8390379 C17.7437442,35.8390379 14.9147359,15.940333 24.3702502,6.47687327 C24.3702502,6.47687327 22.0152919,23.5874191 25.1399444,35.8390379 L17.7437442,35.8390379 Z" id="Path" fill="#D6EAF2"></path>
                <path d="M21.8878591,35.8390379 C21.8878591,35.8390379 31.1598703,30.6697502 30.5532901,21.1604995 C30.5532901,21.1604995 35.7729379,29.6267345 31.6237257,35.8390379 L21.8878591,35.8390379 Z" id="Path" fill="#D6EAF2"></path>
                <path d="M12.1519926,35.8390379 C12.1519926,35.8390379 9.52177943,28.3649399 3.03290083,26.0601295 C3.03290083,26.0601295 14.8586654,25.7497687 17.7437442,35.8390379 L12.1519926,35.8390379 Z" id="Path" fill="#D6EAF2"></path>
            </g>
            <polyline id="Path" stroke="#4E2556" stroke-width="3" fill="#A57574" fill-rule="nonzero" stroke-linecap="round" stroke-linejoin="round" points="261 75 265 82.797271 261.609013 85"></polyline>
            <g id="SHELF" transform="translate(22.000000, 0.000000)" fill-rule="nonzero">
                <path d="M0.29892047,72 L143,72 L143,85 L0.273234789,73.000983 C-0.107769473,72.9626474 -0.0820837922,72 0.29892047,72 Z" id="SHADOW" fill="#FFF4DE"></path>
                <g id="BOOKS" transform="translate(65.000000, 0.000000)">
                    <rect id="Rectangle" stroke="#F1B104" stroke-width="3" fill="#FFFFFF" x="53.6805675" y="7.59975251" width="10.3194325" height="53.3431871" rx="5.15"></rect>
                    <rect id="Rectangle" fill="#F1B104" x="41.6723464" y="12.1135707" width="11.371743" height="49.8864293" rx="5.03"></rect>
                    <rect id="Rectangle" fill="#D6EAF2" x="35.7743155" y="0" width="5.8980309" height="62" rx="2.94901545"></rect>
                    <rect id="Rectangle" stroke="#F1B104" stroke-width="3" fill="#FFFFFF" x="25.8792018" y="15.7237729" width="9.47079493" height="45.6411385" rx="4.73539747"></rect>
                    <path d="M8.26572963,62 L0,62 L20.6770536,6.3466245 C20.8407341,5.9040895 21.2594106,5.6090148 21.7293642,5.60497731 L27.5934496,5.60497731 C27.9657983,5.61151625 28.3117503,5.79944484 28.5210423,6.10886576 C28.7303343,6.41828668 28.7768486,6.81058709 28.6457601,7.16073147 L8.26572963,62 Z" id="Path" fill="#F1B104"></path>
                </g>
                <rect id="SHELF-2" stroke="#F1B104" stroke-width="3" fill="#FFFFFF" x="1" y="62" width="141" height="9"></rect>
                <g id="PLANT" transform="translate(8.000000, 22.000000)">
                    <path d="M6.97807002,19.2358099 L43.0119268,19.2358099 L43.0119268,23.168681 C43.0119268,32.4643618 35.4321007,40 26.0819114,40 L23.9037808,40 C19.4136615,40 15.1074459,38.2267054 11.9324521,35.0702208 C8.75745834,31.9137362 6.97376541,27.6326244 6.97376541,23.168681 L6.97376541,19.2358099 L6.97807002,19.2358099 Z" id="Path" fill="#F1B104"></path>
                    <path d="M39.3960577,19.2358099 L12.7075006,19.2358099 C12.7075006,19.2358099 4.90324993,25.5652075 0.443678124,20.37416 C-2.78477637,16.6167488 12.6644545,16.4455684 12.6644545,16.4455684 L13.129352,16.2872264 C13.129352,16.2872264 6.50025875,2.45584506 12.7634605,0.149188324 C17.0895895,-1.451349 18.1356087,10.2702332 18.3594483,14.074719 C20.6365848,13.1289469 25.0832428,11.7637827 25.4620481,15.3585724 C25.4620481,15.3585724 25.9570778,0.555741922 32.1944519,1.96798074 C37.3599791,3.14484642 29.6891712,17.0575385 29.6891712,17.0575385 L30.2315516,17.3827814 C30.2315516,17.3827814 44.4797974,7.03492243 47.9751375,9.44000793 C50.6181655,11.2588003 39.3960577,19.2358099 39.3960577,19.2358099 Z" id="Path" fill="#A1CBE2"></path>
                    <path d="M16.7925717,19.2358099 C16.7925717,19.2358099 17.0680665,6.47430641 21.902139,6.82522636 C26.7362115,7.17614631 19.9995031,19.2358099 19.9995031,19.2358099 L16.7925717,19.2358099 Z" id="Path" fill="#D6EAF2"></path>
                    <path d="M16.7925717,19.2358099 C16.7925717,19.2358099 11.9455853,7.19326436 5.37675659,10.2787922 C-1.04141094,13.2744503 12.7634605,19.2358099 12.7634605,19.2358099 L16.7925717,19.2358099 Z" id="Path" fill="#D6EAF2"></path>
                    <path d="M26.7577345,19.2358099 C26.7577345,19.2358099 31.122605,8.38724808 38.0099746,9.41861037 C44.8973442,10.4499727 29.4868547,19.2358099 29.4868547,19.2358099 L26.7577345,19.2358099 Z" id="Path" fill="#D6EAF2"></path>
                    <path d="M33.8517252,19.2358099 C33.8517252,19.2358099 47.3509696,12.4784611 49.7787674,16.5525561 C52.2065652,20.6266512 33.8517252,19.2358099 33.8517252,19.2358099 Z" id="Path" fill="#D6EAF2"></path>
                </g>
            </g>
            <g id="MESSAGE_ICON" transform="translate(543.999941, 0.962663)">
                <path d="M45.0506509,48.2786195 C47.9762995,48.2786195 49.9996702,45.4588461 49.9996702,42.492096 L49.9996702,5.84095925 C50.0015157,4.29328406 49.3818053,2.80842391 48.2772548,1.71303142 C47.1727043,0.617638926 45.6737927,0.00144305347 44.1102639,0 L5.89535357,0 C4.33087165,0 2.83054706,0.615558009 1.72480714,1.71110711 C0.619067214,2.80665622 -0.00139778955,4.29234132 0,5.84095925 L0,42.492096 C0,44.039771 0.621170949,45.5240572 1.72675265,46.6184287 C2.83233436,47.7128002 4.33182493,48.3276117 5.89535357,48.3276117 L28.2941634,48.3276117 C33.7935029,48.3276117 36.7301502,57.0373366 36.7301502,57.0373366 C36.7301502,57.0373366 38.6109243,48.2786195 45.0506509,48.2786195 Z" id="Path" fill="#FFF4DE" fill-rule="nonzero" transform="translate(24.999835, 28.518668) scale(-1, 1) translate(-24.999835, -28.518668) "></path>
                <g id="Group" transform="translate(8.000059, 7.227339)">
                    <path d="M26.26,17.46 L26.26,21.88 C26.26,22.01 26.17,22.06 26.07,22 L22.23,19.81 L18.4,17.6 C18.29,17.54 18.29,17.44 18.4,17.38 L22.23,15.16 L26.07,12.95 C26.108398,12.9219949 26.1597057,12.9192898 26.2008357,12.9431019 C26.2419657,12.966914 26.2651672,13.012756 26.26,13.06 L26.26,17.46 Z" id="Path" fill="#F9C543"></path>
                    <path d="M0,17 C0,7.61115925 7.61115925,0 17,0 C26.3888407,0 34,7.61115925 34,17 C34,26.3888407 26.3888407,34 17,34 C7.61115925,34 0,26.3888407 0,17 L0,17 Z" id="Path" stroke="#F9C543" stroke-width="2" stroke-linecap="round" stroke-linejoin="round"></path>
                    <path d="M8.75,11.98 L20.28,11.98 C20.82,11.98 21.28,12.62 21.28,13.41 L21.28,20.6 C21.28,21.39 20.83,22.02 20.28,22.02 L8.75,22.02 C8.2,22.02 7.75,21.39 7.75,20.6 L7.75,13.41 C7.76,12.62 8.2,11.98 8.75,11.98 Z" id="Path" fill="#F9C543"></path>
                </g>
            </g>
        </g>
        <g id="drawkit-daily-life-vector-illustration-01" transform="translate(784.000000, 64.000000)">
            <g id="NOTES" transform="translate(407.000000, 0.000000)" fill-rule="nonzero">
                <rect id="Rectangle" fill="#FFF4DE" x="63.6244867" y="2.86230929" width="23.3755133" height="23.231682"></rect>
                <rect id="Rectangle" fill="#F1B104" x="74.0563523" y="0" width="2.51178217" height="5.83386702"></rect>
                <path d="M49.0979215,2.86230929 L49.0979215,50.0521756 C49.0979215,54.4416378 45.5175289,58 41.1008908,58 L0,58 L0,58 C4.25534587,57.7930978 7.5979624,54.3027828 7.59580517,50.0685628 L7.59580517,2.86230929 L49.0979215,2.86230929 Z" id="Path" fill="#D6EAF2"></path>
                <rect id="Rectangle" fill="#F1B104" x="25.8213406" y="0" width="2.51178217" height="5.83386702"></rect>
                <line x1="15.5598585" y1="14.2678471" x2="40.1390486" y2="14.2678471" id="Path" stroke="#639AD6" stroke-width="3" fill="#FFFFFF"></line>
                <line x1="15.5598585" y1="20.3256734" x2="40.1390486" y2="20.3256734" id="Path" stroke="#639AD6" stroke-width="3" fill="#FFFFFF"></line>
                <line x1="15.5598585" y1="26.3780373" x2="40.1390486" y2="26.3780373" id="Path" stroke="#639AD6" stroke-width="3" fill="#FFFFFF"></line>
                <line x1="15.5598585" y1="32.4358636" x2="40.1390486" y2="32.4358636" id="Path" stroke="#639AD6" stroke-width="3" fill="#FFFFFF"></line>
                <line x1="15.5598585" y1="38.49369" x2="40.1390486" y2="38.49369" id="Path" stroke="#639AD6" stroke-width="3" fill="#FFFFFF"></line>
            </g>
            <g id="CHAIR" transform="translate(251.000000, 152.000000)">
                <polyline id="Path" fill="#D6EAF2" fill-rule="nonzero" points="50.5491121 158.914129 19.6753809 309 22.6279964 309 63.9372241 158.952513"></polyline>
                <polyline id="Path" fill="#D6EAF2" fill-rule="nonzero" points="160.036916 155.371859 191.5187 309 188.65921 309 147.388328 158.886712"></polyline>
                <polyline id="Path" fill="#D6EAF2" fill-rule="nonzero" points="117.160995 158.914129 148.029248 309 145.076633 309 103.767405 158.952513"></polyline>
                <path d="M193.748226,85.2009157 L175.123193,140.610573 C171.246072,152.145971 160.439914,159.912055 148.281234,159.901151 L42.8197234,159.901151 C30.6615877,159.91036 19.8563153,152.144913 15.9777641,140.610573 L0.63950159,95.0326342 C-0.617822419,91.2917349 0,87.1737002 2.30170628,83.9684188 C4.60257235,80.7631373 8.30425512,78.8626023 12.2472795,78.8621167 L24.0522637,78.8621167 C29.634215,78.8861229 34.3751371,74.7776164 35.1505922,69.2442504 L42.0308985,20.3598275 C43.671969,8.68345273 53.6530402,2.84217094e-14 65.4327046,2.84217094e-14 L160.387505,2.84217094e-14 C167.227613,2.84217094e-14 173.732092,2.96710889 178.220919,8.13338705 C182.709747,13.2996652 184.742735,20.1590661 183.794789,26.9398957 L177.889558,69.1181325 C177.545688,71.5685814 178.278755,74.0480239 179.899536,75.916454 C181.520317,77.7848842 183.869986,78.8592084 186.342037,78.8621167 L189.190571,78.8621167 C190.738006,78.8586599 192.192142,79.6023755 193.096089,80.8595869 C194,82.1167983 194.242845,83.7331999 193.748226,85.2009157 L193.748226,85.2009157 Z" id="Path" fill="#D6EAF2" fill-rule="nonzero"></path>
                <path d="M185.794241,78.2699106 L177.993639,78.2699106 C167.533954,78.1815824 158.194153,84.8105648 154.816429,94.7200809 L141.455707,131.875532 C137.945555,142.309024 128.175749,149.336941 117.177429,149.34013 L19.9766682,149.34013" id="Path" stroke="#FFFFFF" stroke-width="3"></path>
            </g>
            <g id="WOMAN" transform="translate(124.000000, 24.000000)">
                <g id="HAIR" transform="translate(169.253824, 0.000000)">
                    <path d="M60.3737794,1.30514469 C84.3895958,1.85539959 74.5826349,27.20014 88.2104184,31.640697 C97.8584067,34.7826525 109.995137,39.4102962 109.737492,58.8397965 C109.523702,74.8687216 108.136803,77.1027565 120.32287,83.9479273 C137.020468,93.3022606 132.514419,124.831866 98.8506146,123.709346" id="Path" stroke="#41465A" stroke-width="3"></path>
                    <path d="M23.766242,19.5460945 C24.3527958,17.9393502 29.2480535,-3.30048878 61.1357512,0.441244505 C84.9925951,3.24204192 75.3884612,30.3310904 86.680993,34.1553619 C95.2435826,37.0497027 108.405412,41.4462393 106.996587,60.8262167 C105.834443,76.8111214 104.315981,78.9846282 116.074466,86.5176177 C132.190992,96.8844199 125.821127,128.061862 92.2834044,124.925409 C58.7456814,121.788956 8.54873314,122.994015 6.27926316,116.467992 C4.6347197,111.680774 -9.54672675,83.3481495 11.0813301,71.0774654 C17.2867407,67.385255 28.7437269,62.9006776 27.5267647,55.7253538 C25.0599495,41.1986246 17.6156494,36.3728891 23.766242,19.5460945 Z" id="Path" fill="#252954" fill-rule="nonzero"></path>
                </g>
                <g id="NECK" transform="translate(204.005616, 42.975948)" fill-rule="nonzero">
                    <path d="M29.086492,6.41046953 C29.086492,6.41046953 27.3158669,29.400119 36.4869376,36.4488842 L11.5227679,35.9976752 C11.5227679,35.9976752 12.1093217,10.5373812 11.5227679,6.42147462 L29.086492,6.41046953 Z" id="Path" fill="#FFCAC0"></path>
                    <ellipse id="Oval" fill="#242854" cx="17.1306611" cy="12.5623192" rx="17.1306611" ry="12.5623192"></ellipse>
                </g>
                <g id="HEAD" transform="translate(196.880443, 17.724378)" fill-rule="nonzero">
                    <path d="M42.471894,23.248642 C42.471894,23.248642 37.4724818,45.1597919 19.4811764,44.389435 C7.51986357,43.877698 1.33638016,23.1606012 0.464772122,13.2395054 C-0.264308812,4.95816927 10.4910054,-1.40827987 18.3683686,0.269997561 C28.071175,2.33895597 28.5974289,18.4999422 38.7935984,17.5590064 L42.471894,23.248642 Z" id="Path" fill="#FFCAC0"></path>
                    <path d="M13.3415474,14.648158 C9.19738598,15.708997 5.16011764,17.1531753 1.28156204,18.9621563 C0.675623266,16.9140122 0.259070398,14.814159 0.0371908223,12.6892505 C-0.510990332,6.63644669 5.08593925,1.6236246 11.2036409,0.0003726629 C11.8450129,0.209469523 12.5083121,0.440576579 13.2045021,0.699196379 C16.3675074,1.87123931 11.3242408,7.94605334 13.3415474,14.648158 Z" id="Path" fill="#EA786C"></path>
                </g>
                <g id="HAIR-2" transform="translate(187.481641, 15.426558)" fill="#252954" fill-rule="nonzero">
                    <path d="M26.5227997,2.14962394 C29.8502593,3.38219491 22.49915,9.85319247 24.1053208,17.0065061 C17.0527951,18.5348159 10.0864841,20.4395684 3.2360643,22.7126494 C3.2360643,22.7126494 -3.06253716,13.0006505 1.91494772,6.38108409 C6.8924326,-0.238482299 15.8277854,-1.8122113 26.5227997,2.14962394 Z" id="Path"></path>
                </g>
                <ellipse id="Oval" fill="#FFCAC0" fill-rule="nonzero" cx="235.805605" cy="35.9657005" rx="6.04643813" ry="6.06931149"></ellipse>
                <path d="M185.033067,90.7986008 C193.200966,86.660684 202.114391,92.2677814 197.696051,105.30332 C194.494673,114.740191 165.928953,170.486515 162.689203,175.328758 C143.014981,186.377876 65.8420384,173.837567 65.8420384,173.837567 C65.8420384,173.837567 55.1086514,178.432195 51.9949825,178.470713 C50.6300114,178.470713 42.3250669,176.907989 42.3250669,176.907989 C42.3250669,176.907989 42.0564581,175.945043 43.3337202,174.745488 C44.6109823,173.545932 53.5408533,174.899559 50.3723662,171.994213 C48.9635407,170.712119 41.6014678,173.177261 38.3123809,176.104617 C35.0232939,179.031973 33.625432,176.550324 33.625432,176.550324 C33.625432,176.550324 36.8761462,171.014759 38.0108812,170.035306 C39.1456162,169.055852 46.5241345,164.994971 51.4303559,164.532757 C54.9880516,164.197101 63.4903413,165.198565 67.919645,166.469654 C85.1544605,163.113099 120.347691,158.47445 143.195881,159.83358 C143.16299,159.861093 166.888271,99.9933601 185.033067,90.7986008 Z" id="LEFT_HAND" fill="#FFCAC0" fill-rule="nonzero"></path>
                <path d="M239.292037,71.3195775 C239.292037,71.3195775 244.554576,80.9545407 273.443723,90.9086518 C273.443723,90.9086518 273.339569,103.377428 268.65262,119.775024 C261.235729,145.725044 251.659004,182.008852 251.801531,196.298972 C251.801531,196.298972 220.648396,205.306644 188.514017,196.298972 C188.514017,196.298972 188.755217,153.004917 186.019793,151.046009 C183.284369,149.087102 176.218314,130.92869 178.559047,121.921018 C180.899781,112.913345 190.21886,89.3899483 190.21886,89.3899483 C190.21886,89.3899483 209.290083,83.6617948 210.923663,72.2990312 C220.38309,73.1750218 229.91493,72.8459231 239.292037,71.3195775 Z" id="TORSO" fill="#FFF4DE" fill-rule="nonzero"></path>
                <g id="LEGS" transform="translate(0.000000, 191.022027)" fill-rule="nonzero">
                    <g id="LEFT_LEG">
                        <g id="FOOT" transform="translate(8.524217, 171.332867)">
                            <path d="M68.9776346,0 C63.9891861,18.6151231 47.8342875,36.4323766 48.8319772,40.4327297 C49.8296669,44.4330828 56.051523,49.3358539 54.423425,55.641775 C53.2832082,60.0438141 44.1505101,57.9088251 37.0734914,61.4469641 C29.9964727,64.9851031 32.315279,68.6608058 20.9460019,69.0569893 C9.57672476,69.4531728 0,69.0569893 0,69.0569893 C0,69.0569893 0.197345215,64.6549501 5.38313893,63.6534862 C10.5689326,62.6520223 27.4967667,52.6483883 32.6825604,32.426521 C37.4846273,13.7178545 39.063389,0 39.063389,0 L68.9776346,0 Z" id="Path" fill="#FFCAC0"></path>
                            <path d="M68.9776346,0 C67.5030273,5.50254895 64.9320577,10.9170571 62.3446426,15.957392 C50.7889839,15.0989943 42.8184299,12.2651816 37.5887817,9.69549125 C38.6467714,3.6426874 39.063389,0.0275127447 39.063389,0.0275127447 L68.9776346,0 Z" id="Path" fill="#3A193F"></path>
                        </g>
                        <path d="M188.744253,0 L180.598281,8.20980303 C177.605212,9.00767263 96.4469922,34.8311348 85.4778873,49.8420884 C74.5087824,64.8530419 38.8167075,173.935572 38.8167075,173.935572 C38.8167075,173.935572 53.9684346,184.61602 90.6691629,180.593656 C90.6691629,180.593656 111.598719,136.716331 114.591788,76.4634202 C114.591788,76.4634202 207.316631,82.8738897 220.878632,60.4510027 C234.440634,38.0281158 222.890457,4.2039474 222.890457,4.2039474 C222.890457,4.2039474 199.017168,3.14195545 188.744253,0 Z" id="PANT" fill="#A1CBE2"></path>
                        <g id="SLIPPER" transform="translate(0.000000, 222.194236)" fill="#F9C543">
                            <rect id="Rectangle" x="0" y="18.388209" width="64.4112856" height="5.62910757" rx="2.81455379"></rect>
                            <path d="M38.2849718,18.388209 C38.2849718,18.388209 30.8406717,9.65566385 29.4428098,1.0386722 C28.9494467,-2.00973992 19.5097673,2.40880689 14.2033737,4.59882137 C-0.219272462,10.5470768 2.8012057,18.388209 2.8012057,18.388209 L38.2849718,18.388209 Z" id="Path"></path>
                        </g>
                    </g>
                    <g id="RIGHT_LEG" transform="translate(109.551917, 0.000000)">
                        <g id="FOOT-2" transform="translate(25.258335, 168.543074)">
                            <path d="M10.6112446,3.62617976 C14.1799039,11.4508044 24.6337185,37.488866 24.8639546,46.2269137 C25.2367178,59.0918732 2.55846343,70.0804634 1.0235562,71.3625573 C-1.52548616,73.4920438 1.48951018,75.1373059 1.48951018,75.1373059 C1.48951018,75.1373059 43.8913224,70.2950628 48.6330894,68.0940432 C53.3748564,65.8930237 42.4550878,53.7433956 41.3532437,44.8072561 C40.2513996,35.8711166 41.8356431,11.0546208 39.8786364,0 L10.6112446,3.62617976 Z" id="Path" fill="#FFCAC0"></path>
                            <path d="M40.9475896,16.3480729 C34.4735702,18.4775594 26.015135,20.8106401 17.9239812,21.6745403 C15.1227755,14.1415508 12.1900063,7.09278559 10.6057628,3.62617976 L39.9060455,6.25567389e-14 C40.6351264,4.07188622 40.8763261,10.0201416 40.9475896,16.3480729 Z" id="Path" fill="#3A193F"></path>
                        </g>
                        <path d="M142.298951,0 C142.298951,0 168.556828,46.6396049 149.216997,69.8493564 C128.336777,94.9134668 41.3404274,85.493103 41.3404274,85.493103 C41.3404274,85.493103 69.451157,116.103783 73.639261,181.958289 C73.639261,181.958289 44.8981231,187.367294 27.361808,182.761661 C27.361808,182.761661 2.112584,98.022407 0.0514228634,74.2844108 C-2.53599218,44.4385853 93.3792643,24.4148097 93.3792643,24.4148097 L97.2549051,2.95486879 C97.2549051,2.95486879 117.011354,5.7776764 142.298951,0 Z" id="PANT-2" fill="#A1CBE2"></path>
                        <g id="SLIPPER-2" transform="translate(15.833971, 228.009387)" fill="#F9C543">
                            <path d="M2.92109521,12.4177735 L61.7072409,12.3907621 C63.2601631,12.3900486 64.5196338,13.6483624 64.5203473,15.2012846 C64.5203477,15.2021444 64.5203477,15.2030041 64.5203473,15.2038639 C64.5196356,16.7586287 63.2594288,18.0188375 61.704664,18.0195519 L2.91851833,18.0465633 C1.36559608,18.0472768 0.106125418,16.788963 0.105411874,15.2360408 C0.105411479,15.235181 0.105411478,15.2343213 0.105411872,15.2334615 C0.106123651,13.6786967 1.3663304,12.4184878 2.92109521,12.4177735 Z" id="Rectangle" transform="translate(32.312880, 15.218663) rotate(-7.030000) translate(-32.312880, -15.218663) "></path>
                            <path d="M37.9720955,11.6981525 C37.9720955,11.6981525 32.4902839,-1.50796497 19.1475546,0.142799713 C5.80482536,1.7935644 2.75693814,16.0616738 2.75693814,16.0616738 L37.9720955,11.6981525 Z" id="Path"></path>
                        </g>
                    </g>
                </g>
                <g id="RIGHT_HAND" transform="translate(167.951742, 90.743553)" fill-rule="nonzero">
                    <path d="M127.468564,90.1592869 C112.5087,99.6841991 39.7595791,70.0364654 39.7595791,70.0364654 C39.7595791,70.0364654 35.3741299,76.3698992 30.5336903,76.3698992 C25.6932507,76.3698992 21.2146107,74.4770224 18.6929774,76.4359298 C16.171344,78.3948372 13.5400745,81.5753105 11.6104768,81.8559405 C9.29732785,82.2356832 6.92594095,82.0179098 4.71983974,81.2231474 C4.71983974,81.2231474 6.3643832,78.2847862 8.09115383,75.4564761 C6.55076479,76.4964578 4.45671278,78.8130309 3.28908692,79.7209515 C2.35063542,80.5133689 0.996131791,80.565488 0,79.8475101 C0,79.8475101 3.37679591,75.1538359 4.68146706,73.9102598 C5.9861382,72.6666838 9.6918428,71.0544369 12.0380581,70.1905367 C14.6145096,69.1890728 29.5195551,63.3453658 36.8761462,62.4869682 C44.6822459,61.5735451 108.254814,67.8409483 108.254814,67.8409483 C108.254814,67.8409483 93.77735,31.6341762 92.8399602,22.2523303 C91.4585437,8.41341968 97.3186003,0.0110274351 104.351764,0 C116.872222,-0.0495006033 139.873903,82.2631291 127.468564,90.1592869 Z" id="Path" fill="#FFCAC0"></path>
                    <path d="M7.06605507,81.8065356 C7.01158469,81.8080525 6.95795228,81.792671 6.91256435,81.7623972 C6.84841578,81.7216881 6.80308815,81.656982 6.78662456,81.5826156 C6.77016098,81.5082492 6.78392083,81.4303629 6.82485537,81.3662136 C7.32918203,80.5738466 11.7968584,73.5801069 13.3756202,72.7932424 C16.1165259,71.4396153 19.6851852,69.6512869 19.6851852,69.6512869 L19.9428304,70.1685265 L13.6332653,73.310482 C12.4163031,73.9157624 8.65578042,79.555875 7.30725478,81.6743564 C7.25543568,81.7577314 7.16394453,81.8078244 7.06605507,81.8065356 L7.06605507,81.8065356 Z" id="Path" fill="#DB7800"></path>
                    <path d="M10.2016513,81.8064176 C10.0965003,81.8060881 10.0000694,81.747678 9.95076497,81.6544509 C9.90146056,81.5612238 9.90729071,81.4483217 9.96593338,81.3607111 C10.1413513,81.0965887 14.3239736,74.9667492 15.9246625,74.1743822 C18.6655683,72.8152526 22.2342276,71.0324267 22.2342276,71.0324267 L22.4918727,71.5441638 C22.4918727,71.5441638 18.9177316,73.3324922 16.1823077,74.6861192 C14.9598637,75.2913996 11.6214405,79.9410535 10.4373692,81.6853615 C10.3827456,81.7613957 10.29504,81.8064176 10.2016513,81.8064176 L10.2016513,81.8064176 Z" id="Path" fill="#DB7800"></path>
                </g>
            </g>
            <g id="TABLE" transform="translate(0.000000, 209.000000)" fill-rule="nonzero">
                <rect id="Rectangle" fill="#FFF4DE" x="0" y="0" width="556" height="11.8945917"></rect>
                <rect id="Rectangle" fill="#F4E8CE" x="471.360128" y="211.865217" width="69.2328217" height="8.34102073"></rect>
                <rect id="Rectangle" fill="#FFF4DE" x="480.893378" y="12.2894329" width="50.0729131" height="11.0555541"></rect>
                <path d="M550.345986,253 L550.345986,253 C547.891189,253 545.785706,251.252524 545.340343,248.843194 L507.080967,41.0909062 C506.978985,40.5363968 506.494714,40.1337152 505.929834,40.1337152 C505.364955,40.1337152 504.880683,40.5363968 504.778701,41.0909062 L466.513831,248.843194 C466.070498,251.25371 463.963783,253.003173 461.508188,253 L461.508188,253 C459.997961,253 458.565643,252.330996 457.598715,251.173167 C456.631787,250.015338 456.230182,248.48864 456.502545,247.006085 L497.767504,22.9556297 L514.086669,22.9556297 L555.351629,247.006085 C555.626044,248.488951 555.225199,250.016796 554.257837,251.175145 C553.290475,252.333494 551.85689,253 550.345986,253 L550.345986,253 Z" id="Path" fill="#FFF4DE"></path>
                <rect id="Rectangle" fill="#F4E8CE" x="15.5059542" y="211.865217" width="69.2328217" height="8.34102073"></rect>
                <rect id="Rectangle" fill="#FFF4DE" x="25.0337092" y="12.2894329" width="50.0729131" height="11.0555541"></rect>
                <path d="M94.4918124,253 L94.4918124,253 C92.0370153,253 89.931532,251.252524 89.4861694,248.843194 L51.2212988,41.0963901 C51.1193167,40.5418807 50.6350454,40.1391991 50.0701657,40.1391991 C49.505286,40.1391991 49.0210147,40.5418807 48.9190327,41.0963901 L10.6596567,248.843194 C10.2142941,251.252524 8.10881084,253 5.65401378,253 L5.65401378,253 C4.14311035,253 2.70952533,252.333494 1.74216301,251.175145 C0.774800682,250.016796 0.373956142,248.488951 0.64837087,247.006085 L41.9078358,22.9556297 L58.2324956,22.9556297 L99.4974553,247.006085 C99.769818,248.48864 99.3682128,250.015338 98.4012848,251.173167 C97.4343568,252.330996 96.0020391,253 94.4918124,253 Z" id="Path" fill="#FFF4DE"></path>
            </g>
            <g id="MESSAGE_ICON" transform="translate(109.999941, 59.962663)">
                <path d="M45.0506509,48.2786195 C47.9762995,48.2786195 49.9996702,45.4588461 49.9996702,42.492096 L49.9996702,5.84095925 C50.0015157,4.29328406 49.3818053,2.80842391 48.2772548,1.71303142 C47.1727043,0.617638926 45.6737927,0.00144305347 44.1102639,0 L5.89535357,0 C4.33087165,0 2.83054706,0.615558009 1.72480714,1.71110711 C0.619067214,2.80665622 -0.00139778955,4.29234132 0,5.84095925 L0,42.492096 C0,44.039771 0.621170949,45.5240572 1.72675265,46.6184287 C2.83233436,47.7128002 4.33182493,48.3276117 5.89535357,48.3276117 L28.2941634,48.3276117 C33.7935029,48.3276117 36.7301502,57.0373366 36.7301502,57.0373366 C36.7301502,57.0373366 38.6109243,48.2786195 45.0506509,48.2786195 Z" id="Path" fill="#FFF4DE" fill-rule="nonzero"></path>
                <g id="Group" transform="translate(8.000059, 7.227339)">
                    <path d="M26.26,17.46 L26.26,21.88 C26.26,22.01 26.17,22.06 26.07,22 L22.23,19.81 L18.4,17.6 C18.29,17.54 18.29,17.44 18.4,17.38 L22.23,15.16 L26.07,12.95 C26.108398,12.9219949 26.1597057,12.9192898 26.2008357,12.9431019 C26.2419657,12.966914 26.2651672,13.012756 26.26,13.06 L26.26,17.46 Z" id="Path" fill="#F9C543"></path>
                    <path d="M0,17 C0,7.61115925 7.61115925,0 17,0 C26.3888407,0 34,7.61115925 34,17 C34,26.3888407 26.3888407,34 17,34 C7.61115925,34 0,26.3888407 0,17 L0,17 Z" id="Path" stroke="#F9C543" stroke-width="2" stroke-linecap="round" stroke-linejoin="round"></path>
                    <path d="M8.75,11.98 L20.28,11.98 C20.82,11.98 21.28,12.62 21.28,13.41 L21.28,20.6 C21.28,21.39 20.83,22.02 20.28,22.02 L8.75,22.02 C8.2,22.02 7.75,21.39 7.75,20.6 L7.75,13.41 C7.76,12.62 8.2,11.98 8.75,11.98 Z" id="Path" fill="#F9C543"></path>
                </g>
            </g>
            <g id="LAPTOP" transform="translate(134.000000, 128.000000)" fill-rule="nonzero">
                <path d="M95.5407641,0 L6.12794961,0 C4.12326742,-0.00262118737 2.24440447,0.983140864 1.09847644,2.63876278 C-0.0474515947,4.29438469 -0.31514064,6.40993305 0.381907477,8.30181217 L22.9261876,69.956565 L127.630622,69.956565 L104.316538,6.14334236 C102.957906,2.44796894 99.4554677,-0.00385620352 95.5407641,0 L95.5407641,0 Z" id="Path" fill="#F1B104"></path>
                <path d="M93.7812106,3.12701918 L6.59533103,3.12701918 C4.6449297,3.12701918 2.81779732,4.08708689 1.70225927,5.69742964 C0.586721217,7.30777238 0.323649364,9.36527884 0.997751228,11.2074446 L22.9921709,71.3291304 L125.073771,71.3291304 L102.342538,9.1375274 C101.02073,5.52723894 97.6038611,3.12841463 93.7812106,3.12701918 Z" id="Path" fill="#F9C543"></path>
                <path d="M22.7227392,69.9399614 L194.235224,69.9399614 C196.559787,69.9399614 198.789142,70.8694251 200.432856,72.523881 C202.076571,74.178337 203,76.4222608 203,78.7620149 L203,79 L31.4875155,79 C26.6468632,79 22.7227392,75.0502321 22.7227392,70.1779465 L22.7227392,69.9399614 Z" id="Path" fill="#F1B104"></path>
                <ellipse id="Oval" fill="#FFD473" transform="translate(60.077167, 37.231323) rotate(-48.000000) translate(-60.077167, -37.231323) " cx="60.0771675" cy="37.2313231" rx="8.69714727" ry="10.7261165"></ellipse>
                <rect id="Rectangle" fill="#3A193F" x="142.46036" y="73.1832006" width="7.30764593" height="2.6399746"></rect>
                <rect id="Rectangle" fill="#F1B104" x="156.421318" y="73.1832006" width="7.30764593" height="2.6399746"></rect>
            </g>
            <g id="CUP" transform="translate(444.000000, 142.000000)" fill-rule="nonzero">
                <path d="M28.3333318,41.5967987 L25.5353819,41.5967987 L25.5353819,35.8316524 L3.05646608e-06,35.8316524 L3.05646608e-06,62.0710983 C-0.00144051257,63.3787733 0.508517131,64.6333124 1.41738827,65.5579789 C2.32625942,66.4826453 3.55936834,67.0014655 4.84470543,66.9999969 L20.6906826,66.9999969 C23.3663361,66.9999969 25.5353819,64.7932521 25.5353819,62.0710983 L25.5353819,53.1270913 L28.3333318,53.1270913 C31.4629445,53.1270913 34.0000031,50.5459474 34.0000031,47.361945 C34.0000031,44.1779426 31.4629445,41.5967987 28.3333318,41.5967987 L28.3333318,41.5967987 Z M30.3256464,49.5107219 C29.7657756,50.0805687 29.0055185,50.3995253 28.2135752,50.3968326 L25.5353819,50.3968326 L25.5353819,44.304917 L28.2135752,44.304917 C29.4218089,44.3026509 30.5120644,45.042099 30.9747376,46.1776359 C31.4374108,47.3131727 31.1811146,48.6205075 30.3256464,49.4885696 L30.3256464,49.5107219 Z" id="Shape" stroke="#F1B104" stroke-width="3" fill="#FFFFFF"></path>
                <path d="M14.7137389,33.3727428 C13.3691988,31.9716073 6.32533263,27.2808495 7.89849903,20.5299241 C9.47166543,13.7789987 19.4441251,15.2410531 19.1392901,7.69818156 C18.8780029,1.30169359 13.3691988,3.86582686 12.1607457,6.19736057 C12.1607457,6.19736057 12.8901724,-2.24268069 20.4674998,0.576204482 C33.2596833,5.33341934 18.4098635,18.8518844 14.1639472,22.5900916 C10.2664139,26.0292423 14.7137389,33.3727428 14.7137389,33.3727428 Z" id="Path" fill="#FFF4DE"></path>
                <path d="M23.6573805,15.2798197 C23.6573805,15.2798197 22.0243358,20.9785089 15.3778438,23.7807799 C15.3778438,23.7807799 25.5789297,23.7807799 23.6573805,15.2798197 Z" id="Path" fill="#FFF4DE"></path>
            </g>
            <g id="LAMP" transform="translate(440.000000, 77.000000)">
                <path d="M102.42152,130 C102.42152,130 121.805069,25.0087515 24.7219365,10.3525989" id="Path" stroke="#F1B104" stroke-width="3"></path>
                <path d="M102.801914,129.416806 L51.1234765,129.416806 C54.7289489,121.148534 64.9058632,115.185786 76.9626952,115.185786 C89.0195271,115.185786 99.1964414,121.148534 102.801914,129.416806 Z" id="Path" fill="#F9C543" fill-rule="nonzero"></path>
                <path d="M102.801914,129.416806 L96.2966273,129.416806 C92.8730824,121.573666 83.192334,115.91614 71.7805177,115.91614 C70.9756264,115.91614 70.1817609,115.91614 69.3989213,116.003347 C71.8823655,115.458263 74.4187873,115.184103 76.9626952,115.185778 C88.9864493,115.185778 99.1964414,121.148534 102.801914,129.416806 Z" id="Path" fill="#F1B104" fill-rule="nonzero"></path>
                <path d="M25.5543927,11.3336727 C25.0857915,13.4102789 23.4319051,15.0345011 21.0833864,16.0210253 C18.3930645,17.1547106 14.7875921,17.4544831 11.038783,16.6314712 C7.28997377,15.8084593 4.15310255,14.0588777 2.18497772,11.8787137 C0.475961769,10.0037726 -0.334442571,7.83995983 0.128645623,5.76335361 C1.12649042,1.3049182 7.626264,-1.06601017 14.6497683,0.465555053 C21.6732726,1.99712027 26.5522375,6.86433644 25.5543927,11.3336727 Z" id="Path" fill="#F9C543" fill-rule="nonzero"></path>
                <path d="M25.5543927,11.3336727 C25.1188692,13.2794691 23.6303715,14.8328359 21.502371,15.8357114 C22.5024244,15.0554694 23.207412,13.9648633 23.5035735,12.7398785 C24.4352629,8.57576519 19.8815623,4.04647445 13.3376851,2.61301661 C7.16317581,1.26676533 1.41867702,3.15805761 0.00184766509,6.86433644 C0.00765163783,6.49773097 0.0501244422,6.13259229 0.128645623,5.77425443 C1.12649042,1.31036861 7.626264,-1.06055976 14.6497683,0.471005463 C21.6732726,2.00257068 26.5522375,6.86978685 25.5543927,11.3336727 Z" id="Path" fill="#F9C543" fill-rule="nonzero"></path>
                <path d="M19.6610441,14.979997 C14.1779383,16.8977803 8.06879048,15.5612332 3.9160455,11.5353378 C3.00640797,9.57319023 8.37602584,8.88643856 12.5603585,9.80210745 C16.7446911,10.7177763 21.3921119,13.9444191 19.6610441,14.979997 Z" id="Path" fill="#F1B104" fill-rule="nonzero"></path>
            </g>
            <path d="M338,77.98925 C338,77.98925 342.44086,78.4091711 346,74" id="Path" stroke="#3A1A3F" stroke-width="3" stroke-linecap="round" stroke-linejoin="round"></path>
            <path d="M357,63 C357,63 357,57.9339941 361,58.0006521" id="Path" stroke="#F2725A" stroke-width="3" stroke-linecap="round" stroke-linejoin="round"></path>
            <line x1="357" y1="60" x2="360" y2="61" id="Path" stroke="#F2725A" stroke-width="3" stroke-linecap="round" stroke-linejoin="round"></line>
            <circle id="Oval" fill="#FFCDC5" fill-rule="nonzero" cx="365" cy="65" r="2"></circle>
            <polyline id="Path" stroke="#F2725A" stroke-width="3" stroke-linecap="round" stroke-linejoin="round" points="337 63 337 72.0242494 339 73"></polyline>
            <path d="M340,56 C340,56 342.567416,53.75 347,56" id="Path" stroke="#3A1A3F" stroke-width="3" stroke-linecap="round" stroke-linejoin="round"></path>
            <ellipse id="Oval" fill="#242854" fill-rule="nonzero" transform="translate(343.588467, 61.854691) rotate(-9.940000) translate(-343.588467, -61.854691) " cx="343.588467" cy="61.854691" rx="1.5098675" ry="1.95459211"></ellipse>
            <ellipse id="Oval" fill="#242854" fill-rule="nonzero" transform="translate(329.710212, 65.376058) rotate(-13.240000) translate(-329.710212, -65.376058) " cx="329.710212" cy="65.3760575" rx="1.5098675" ry="1.95459211"></ellipse>
            <path d="M261.250677,398 C261.250677,398 236.104004,313.443425 234.051214,289.756603 C231.474308,259.980609 327,240 327,240" id="PANT-3" stroke="#639AD6" stroke-width="3"></path>
        </g>
    </g>
</svg>